<svg width="114" height="29" viewBox="0 0 114 29" fill="none" xmlns="http://www.w3.org/2000/svg">
<g clip-path="url(#clip0_2_582)">
<path d="M16.4523 8.27186C11.5277 6.52119 6.17495 6.37659 1.16302 7.85885C0.963802 7.90652 0.776232 7.99385 0.61151 8.11562C0.446788 8.23739 0.308292 8.3911 0.204291 8.56758C0.10029 8.74406 0.0329167 8.93969 0.00619382 9.14278C-0.020529 9.34587 -0.00605357 9.55227 0.048756 9.74965C0.323068 10.8505 0.723194 12.1153 1.20376 13.2621C1.21201 13.2889 1.2249 13.276 1.2249 13.2492C1.15529 12.7114 1.56882 12.0323 2.3799 11.7853C6.27775 10.5448 10.4726 10.6004 14.3362 11.9436C14.4787 11.9924 14.6295 12.0121 14.7798 12.0016C14.93 11.9911 15.0767 11.9507 15.211 11.8826C15.3454 11.8146 15.4648 11.7203 15.5621 11.6054C15.6595 11.4905 15.7329 11.3572 15.7779 11.2135C16.2585 9.66663 16.4523 8.6163 16.5003 8.35333C16.5085 8.30435 16.4652 8.28579 16.4523 8.27238V8.27186ZM4.57079 11.675C3.9804 11.7982 3.16416 11.9921 2.5516 12.1953C1.32699 12.6176 1.38371 14.1077 2.03597 14.5831C2.08393 14.3067 2.3799 13.9308 2.7099 13.804C3.93244 13.3234 5.24522 13.0362 6.57244 12.9176C5.89801 12.6438 5.24007 12.2515 4.57955 11.6745L4.57079 11.675ZM14.3197 14.6584C12.5603 13.8317 10.6531 13.3662 8.71074 13.2892C6.76837 13.2123 4.83028 13.5255 3.01102 14.2103C2.42785 14.4305 2.06279 15.14 2.42785 15.8134C3.0656 16.9664 3.78935 18.0697 4.59296 19.1139C4.47746 18.7138 4.68165 17.9728 5.4654 17.7305C7.63308 17.0643 9.90751 17.3469 11.4193 17.9589C11.8463 18.1306 12.4506 18.0265 12.7893 17.5191C13.3671 16.6291 13.8925 15.7063 14.363 14.7553C14.3842 14.7125 14.363 14.6806 14.3197 14.6584ZM10.8073 20.0003C10.1732 19.6801 9.59324 19.2623 9.08869 18.7623C8.85511 18.5287 8.51119 18.193 8.14871 17.7929C7.32113 17.7929 6.51779 17.8759 5.65876 18.1502C4.86108 18.3998 4.78632 19.3212 5.1354 19.8018C5.72579 20.5376 6.13983 20.9346 6.80035 21.6173C7.15039 21.9606 7.62046 22.154 8.11077 22.1564C8.60109 22.1588 9.07303 21.97 9.42643 21.6302C9.94205 21.1145 10.2592 20.7706 10.8418 20.1101C10.8764 20.075 10.863 20.0137 10.8068 20.0003H10.8073Z" fill="black"/>
</g>
<path d="M30.95 7.548V10.892H25.668V12.754H29.468V15.927H25.668V21H21.45V7.548H30.95ZM41.5747 18.967H37.0907L36.4257 21H31.9987L36.9197 7.548H41.7837L46.6857 21H42.2397L41.5747 18.967ZM40.5487 15.794L39.3327 12.051L38.1167 15.794H40.5487ZM53.477 21.133C51.8684 21.133 50.5384 20.7593 49.487 20.012C48.4484 19.252 47.8847 18.1437 47.796 16.687H52.28C52.3434 17.4597 52.6854 17.846 53.306 17.846C53.534 17.846 53.724 17.7953 53.876 17.694C54.0407 17.58 54.123 17.409 54.123 17.181C54.123 16.8643 53.952 16.611 53.61 16.421C53.268 16.2183 52.736 15.9903 52.014 15.737C51.1527 15.433 50.437 15.1353 49.867 14.844C49.3097 14.5527 48.8284 14.1283 48.423 13.571C48.0177 13.0137 47.8214 12.298 47.834 11.424C47.834 10.55 48.0557 9.809 48.499 9.201C48.955 8.58033 49.5694 8.11167 50.342 7.795C51.1274 7.47833 52.0077 7.32 52.983 7.32C54.6297 7.32 55.9344 7.7 56.897 8.46C57.8724 9.22 58.3854 10.2903 58.436 11.671H53.895C53.8824 11.291 53.7874 11.0187 53.61 10.854C53.4327 10.6893 53.2174 10.607 52.964 10.607C52.7867 10.607 52.641 10.6703 52.527 10.797C52.413 10.911 52.356 11.0757 52.356 11.291C52.356 11.595 52.5207 11.8483 52.85 12.051C53.192 12.241 53.7304 12.4753 54.465 12.754C55.3137 13.0707 56.0104 13.3747 56.555 13.666C57.1124 13.9573 57.5937 14.3627 57.999 14.882C58.4044 15.4013 58.607 16.0537 58.607 16.839C58.607 17.6623 58.4044 18.4033 57.999 19.062C57.5937 19.708 57.0047 20.2147 56.232 20.582C55.4594 20.9493 54.541 21.133 53.477 21.133ZM73.104 7.548V21H68.886V15.756H64.877V21H60.659V7.548H64.877V12.393H68.886V7.548H73.104ZM79.7898 7.548V21H75.5718V7.548H79.7898ZM88.8198 21.133C87.5532 21.133 86.3878 20.8353 85.3238 20.24C84.2725 19.6447 83.4365 18.8213 82.8158 17.77C82.1952 16.7187 81.8848 15.5343 81.8848 14.217C81.8848 12.8997 82.1952 11.7153 82.8158 10.664C83.4365 9.61267 84.2725 8.79567 85.3238 8.213C86.3878 7.61767 87.5532 7.32 88.8198 7.32C90.0865 7.32 91.2455 7.61767 92.2968 8.213C93.3482 8.79567 94.1778 9.61267 94.7858 10.664C95.4065 11.7153 95.7168 12.8997 95.7168 14.217C95.7168 15.5343 95.4065 16.7187 94.7858 17.77C94.1778 18.8213 93.3418 19.6447 92.2778 20.24C91.2265 20.8353 90.0738 21.133 88.8198 21.133ZM88.8198 17.2C89.6558 17.2 90.3018 16.934 90.7578 16.402C91.2138 15.8573 91.4418 15.129 91.4418 14.217C91.4418 13.2923 91.2138 12.564 90.7578 12.032C90.3018 11.4873 89.6558 11.215 88.8198 11.215C87.9712 11.215 87.3188 11.4873 86.8628 12.032C86.4068 12.564 86.1788 13.2923 86.1788 14.217C86.1788 15.129 86.4068 15.8573 86.8628 16.402C87.3188 16.934 87.9712 17.2 88.8198 17.2ZM110.709 21H106.491L102.026 14.236V21H97.8085V7.548H102.026L106.491 14.426V7.548H110.709V21Z" fill="black"/>
<defs>
<clipPath id="clip0_2_582">
<rect width="16.5" height="16.5" fill="white" transform="translate(0 6.25)"/>
</clipPath>
</defs>
</svg>
